<svg width="26" height="20" viewBox="0 0 26 20" fill="none" xmlns="http://www.w3.org/2000/svg">
<path d="M23.5625 0.5C24.8828 0.5 26 1.61719 26 2.9375C26 3.75 25.5938 4.46094 24.9844 4.91797L13.9648 13.1953C13.3555 13.6523 12.5938 13.6523 11.9844 13.1953L0.964844 4.91797C0.355469 4.46094 0 3.75 0 2.9375C0 1.61719 1.06641 0.5 2.4375 0.5H23.5625ZM11.0195 14.5156C12.1875 15.3789 13.7617 15.3789 14.9297 14.5156L26 6.1875V16.75C26 18.5781 24.5273 20 22.75 20H3.25C1.42188 20 0 18.5781 0 16.75V6.1875L11.0195 14.5156Z" fill="#D4D4D4"/>
</svg>
