<svg width="19" height="27" viewBox="0 0 19 27" fill="none" xmlns="http://www.w3.org/2000/svg">
<path d="M16.25 0.25C17.5703 0.25 18.6875 1.36719 18.6875 2.6875V23.8125C18.6875 25.1836 17.5703 26.25 16.25 26.25H3.25C1.87891 26.25 0.8125 25.1836 0.8125 23.8125V2.6875C0.8125 1.36719 1.87891 0.25 3.25 0.25H16.25ZM12.1875 23C12.1875 22.5938 11.7812 22.1875 11.375 22.1875H8.125C7.66797 22.1875 7.3125 22.5938 7.3125 23C7.3125 23.457 7.66797 23.8125 8.07422 23.8125H11.375C11.7812 23.8125 12.1875 23.457 12.1875 23Z" fill="#D4D4D4"/>
</svg>
