<svg width="26" height="27" viewBox="0 0 26 27" fill="none" xmlns="http://www.w3.org/2000/svg">
<path d="M13 0.25C20.1602 0.25 26 6.08984 26 13.25C26 20.4609 20.1602 26.25 13 26.25C5.78906 26.25 0 20.4609 0 13.25C0 6.08984 5.78906 0.25 13 0.25ZM13 6.75C10.9688 6.75 9.34375 8.42578 9.34375 10.4062C9.34375 12.4375 10.9688 14.0625 13 14.0625C14.9805 14.0625 16.6562 12.4375 16.6562 10.4062C16.6562 8.42578 14.9805 6.75 13 6.75ZM13 23C15.6406 23 18.0781 21.9336 19.8555 20.1562C19.043 18.0234 17.0117 16.5 14.625 16.5H11.375C8.9375 16.5 6.90625 18.0234 6.09375 20.1562C7.87109 21.9336 10.3086 23 13 23Z" fill="#05967D"/>
</svg>
